# xmcd
# Track frame offsets:
# 150
# 9730
# 21101
# 28610
# 43027
# 61372
# 71079
# 85988
# 99314
# 113224
# 142935
# 156380
# 169919
# 181705
# 195329
# 215187
# 229093
# 238467
# 248439
# 259788
# 267487
# 279596
# 290397
# 304810
# 316631
# 326993
# 339739
# 351511
#
# Disc length: 4747 seconds
# Revision: 0
# Processed by: cddbd v1.4PL0 Copyright (c) Steve Scherf et al.
# Submitted via: VisiTrax 2.9.5.180 - For more info visit www.synapsa.com
#
DISCID=a612891c
DTITLE=Various Artist - High And Wide
DYEAR=2003
DGENRE=Country
TTITLE0=The Hollywood Sound Stage Orchestra - How The West Was Won
TTITLE1=George Greeley and His Orchestra - Ride The High Country
TTITLE2=The New Christy Minstrels - Wagoner's Song
TTITLE3=Aaron Copeland's Rodeo - Hoe Down
TTITLE4=Skip Gorman - Buffalo Hump
TTITLE5=Frankie Laine - Rawhide
TTITLE6=Arlo Guthrie - Lay Down Little Doggies
TTITLE7=Emmylou Harris - Cattle Call
TTITLE8=Vaughn Monroe and The Sons Of The Pioneers - Ghost Riders In The Sky
TTITLE9=Elmer Berstein - Magnificent Seven
TTITLE10=Gene Pitney - (The Man Who Shot) Liberty Valance
TTITLE11=Enio Morricone - Fistful Of Dollars
TTITLE12=Enio Morricone - Guns Dont Argue
TTITLE13=Pernell Roberts - They Call The Wind Maria
TTITLE14=Marty Robbins - El Paso
TTITLE15=Tex Ritter - High Noon
TTITLE16=Tex Ritter - Wichita
TTITLE17=Sons Of The Pioneers - Cool Water
TTITLE18=Sons Of The Pioneers - Tumbling Tumbleweeds
TTITLE19=The Holllywood Studio Orchestra - The Comancheros
TTITLE20=Jim Reeves - Mexican Joe
TTITLE21=Patcy Cline - San Antonio Rose
TTITLE22=Randy Travis - The Old Chisolm Trail
TTITLE23=LeAnn Rimes - I Want To Be A Cowboy's Sweetheart
TTITLE24=Jimmie Rodgers - Tucumcari
TTITLE25=Tex Ritter and His Texans - Jingle Jangle Jingle
TTITLE26=Gene Autry - Don't Fence Me In
TTITLE27=Roy Rogers and Dale Evans - Happy Trails excerpt
EXTD=
EXTT0=
EXTT1=
EXTT2=
EXTT3=
EXTT4=
EXTT5=
EXTT6=
EXTT7=
EXTT8=
EXTT9=
EXTT10=
EXTT11=
EXTT12=
EXTT13=
EXTT14=
EXTT15=
EXTT16=
EXTT17=
EXTT18=
EXTT19=
EXTT20=
EXTT21=
EXTT22=
EXTT23=
EXTT24=
EXTT25=
EXTT26=
EXTT27=
PLAYORDER=
